<?xml version="1.0" encoding="utf-8"?>
<svg version="1.1" id="Layer_1"
xmlns="http://www.w3.org/2000/svg"
xmlns:xlink="http://www.w3.org/1999/xlink"
width="264px" height="46px"
xml:space="preserve">
<g id="PathID_33" transform="matrix(0.595581, 0, 0, 0.4972, 37.05, 33.4)" opacity="1">
<path style="fill:#FF8409;fill-opacity:1" d="M20.25 -40.5L26.3 0L15.6 0L15 -7.3L11.2 -7.3L10.55 0L-0.3 0L5.1 -40.5L20.25 -40.5M14.7 -14.5Q13.9 -21.3 13.1 -31.45Q11.5 -19.8 11.05 -14.5L14.7 -14.5" />
</g>
<g id="PathID_34" transform="matrix(0.595581, 0, 0, 0.4972, 57.9, 33.4)" opacity="1">
<path style="fill:#FF8409;fill-opacity:1" d="M2.1 -40.5L12.6 -40.5Q17.55 -40.5 20.1 -39.7Q22.7 -38.95 24.25 -36.55Q25.85 -34.2 25.85 -28.95Q25.85 -25.4 24.7 -24Q23.6 -22.6 20.3 -21.85Q23.95 -21 25.25 -19.1Q26.6 -17.2 26.6 -13.25L26.6 -9.5Q26.6 -5.4 25.65 -3.4Q24.7 -1.45 22.65 -0.7Q20.6 0 14.25 0L2.1 0L2.1 -40.5M12.65 -33.55L12.65 -24.55L13.65 -24.55Q15.2 -24.55 15.6 -25.3Q16.05 -26.1 16.05 -29.7Q16.05 -31.6 15.7 -32.35Q15.35 -33.1 14.8 -33.3Q14.25 -33.5 12.65 -33.55M12.65 -18.25L12.65 -6.95Q14.8 -7 15.4 -7.6Q16.05 -8.25 16.05 -10.7L16.05 -14.45Q16.05 -17.05 15.5 -17.6Q14.95 -18.15 12.65 -18.25" />
</g>
<g id="PathID_35" transform="matrix(0.595581, 0, 0, 0.4972, 80.1, 33.4)" opacity="1">
<path style="fill:#FF8409;fill-opacity:1" d="M26.15 -16.75Q26.15 -10.65 25.85 -8.1Q25.55 -5.6 24.05 -3.5Q22.55 -1.4 19.95 -0.25Q17.4 0.85 13.95 0.85Q10.7 0.85 8.1 -0.2Q5.55 -1.25 3.95 -3.35Q2.4 -5.5 2.1 -8Q1.8 -10.5 1.8 -16.75L1.8 -23.7Q1.8 -29.8 2.05 -32.3Q2.35 -34.85 3.85 -36.95Q5.4 -39.05 7.95 -40.2Q10.55 -41.35 13.95 -41.35Q17.2 -41.35 19.8 -40.25Q22.4 -39.2 23.95 -37.05Q25.55 -34.95 25.85 -32.45Q26.15 -29.95 26.15 -23.7L26.15 -16.75M15.6 -30.05Q15.6 -32.9 15.25 -33.7Q14.95 -34.5 14 -34.5Q13.2 -34.5 12.75 -33.85Q12.35 -33.2 12.35 -30.05L12.35 -11.15Q12.35 -7.65 12.6 -6.8Q12.9 -6 13.95 -6Q15 -6 15.3 -6.95Q15.6 -7.9 15.6 -11.45L15.6 -30.05" />
</g>
<g id="PathID_36" transform="matrix(0.595581, 0, 0, 0.4972, 96.75, 33.4)" opacity="1">
<path style="fill:#FF8409;fill-opacity:1" d="M25.6 -40.5L25.6 0L16.4 0L10.9 -18.4L10.9 0L2.1 0L2.1 -40.5L10.9 -40.5L16.8 -22.25L16.8 -40.5L25.6 -40.5" />
</g>
<g id="PathID_37" transform="matrix(0.595581, 0, 0, 0.4972, 113.3, 33.4)" opacity="1">
<path style="fill:#FF8409;fill-opacity:1" d="M12.65 -40.5L12.65 -8.1L19.05 -8.1L19.05 0L2.1 0L2.1 -40.5L12.65 -40.5" />
</g>
<g id="PathID_38" transform="matrix(0.595581, 0, 0, 0.4972, 124.85, 33.4)" opacity="1">
<path style="fill:#FF8409;fill-opacity:1" d="M12.65 -40.5L12.65 0L2.1 0L2.1 -40.5L12.65 -40.5" />
</g>
<g id="PathID_39" transform="matrix(0.595581, 0, 0, 0.4972, 133.65, 33.4)" opacity="1">
<path style="fill:#FF8409;fill-opacity:1" d="M25.6 -40.5L25.6 0L16.4 0L10.9 -18.4L10.9 0L2.1 0L2.1 -40.5L10.9 -40.5L16.8 -22.25L16.8 -40.5L25.6 -40.5" />
</g>
<g id="PathID_40" transform="matrix(0.595581, 0, 0, 0.4972, 150.15, 33.4)" opacity="1">
<path style="fill:#FF8409;fill-opacity:1" d="M2.1 -40.5L19.65 -40.5L19.65 -32.4L12.65 -32.4L12.65 -24.7L19.2 -24.7L19.2 -17L12.65 -17L12.65 -8.1L20.35 -8.1L20.35 0L2.1 0L2.1 -40.5" />
</g>
<g id="PathID_41" transform="matrix(0.595581, 0, 0, 0.4972, 168.2, 33.4)" opacity="1">
<path style="fill:#FF8409;fill-opacity:1" d="M2.1 -40.5L12.6 -40.5Q17.55 -40.5 20.1 -39.7Q22.7 -38.95 24.25 -36.55Q25.85 -34.2 25.85 -28.95Q25.85 -25.4 24.7 -24Q23.6 -22.6 20.3 -21.85Q23.95 -21 25.25 -19.1Q26.6 -17.2 26.6 -13.25L26.6 -9.5Q26.6 -5.4 25.65 -3.4Q24.7 -1.45 22.65 -0.7Q20.6 0 14.25 0L2.1 0L2.1 -40.5M12.65 -33.55L12.65 -24.55L13.65 -24.55Q15.2 -24.55 15.6 -25.3Q16.05 -26.1 16.05 -29.7Q16.05 -31.6 15.7 -32.35Q15.35 -33.1 14.8 -33.3Q14.25 -33.5 12.65 -33.55M12.65 -18.25L12.65 -6.95Q14.8 -7 15.4 -7.6Q16.05 -8.25 16.05 -10.7L16.05 -14.45Q16.05 -17.05 15.5 -17.6Q14.95 -18.15 12.65 -18.25" />
</g>
<g id="PathID_42" transform="matrix(0.595581, 0, 0, 0.4972, 185.05, 33.4)" opacity="1">
<path style="fill:#FF8409;fill-opacity:1" d="M20.25 -40.5L26.3 0L15.6 0L15 -7.3L11.2 -7.3L10.55 0L-0.3 0L5.1 -40.5L20.25 -40.5M14.7 -14.5Q13.9 -21.3 13.1 -31.45Q11.5 -19.8 11.05 -14.5L14.7 -14.5" />
</g>
<g id="PathID_43" transform="matrix(0.595581, 0, 0, 0.4972, 201.25, 33.4)" opacity="1">
<path style="fill:#FF8409;fill-opacity:1" d="M19.7 -40.5L19.7 -32.4L11.85 -8.1L19.7 -8.1L19.7 0L0.3 0L0.3 -5.85L8.4 -32.4L1.25 -32.4L1.25 -40.5L19.7 -40.5" />
</g>
<g id="PathID_44" transform="matrix(0.595581, 0, 0, 0.4972, 214, 33.4)" opacity="1">
<path style="fill:#FF8409;fill-opacity:1" d="M20.25 -40.5L26.3 0L15.6 0L15 -7.3L11.2 -7.3L10.55 0L-0.3 0L5.1 -40.5L20.25 -40.5M14.7 -14.5Q13.9 -21.3 13.1 -31.45Q11.5 -19.8 11.05 -14.5L14.7 -14.5" />
</g>
<g id="PathID_45" transform="matrix(0.595581, 0, 0, 0.4972, 230.25, 33.4)" opacity="1">
<path style="fill:#FF8409;fill-opacity:1" d="M20.25 -40.5L26.3 0L15.6 0L15 -7.3L11.2 -7.3L10.55 0L-0.3 0L5.1 -40.5L20.25 -40.5M14.7 -14.5Q13.9 -21.3 13.1 -31.45Q11.5 -19.8 11.05 -14.5L14.7 -14.5" />
</g>
<g id="PathID_46" transform="matrix(0.595581, 0, 0, 0.4972, 245.7, 33.4)" opacity="1">
<path style="fill:#FF8409;fill-opacity:1" d="M2.1 -40.5L9.55 -40.5Q17 -40.5 19.6 -39.9Q22.25 -39.3 23.9 -36.95Q25.6 -34.6 25.6 -29.4Q25.6 -24.7 24.4 -23.05Q23.25 -21.45 19.8 -21.1Q22.9 -20.35 23.95 -19.05Q25.05 -17.75 25.3 -16.65Q25.6 -15.55 25.6 -10.65L25.6 0L15.8 0L15.8 -13.45Q15.8 -16.7 15.25 -17.45Q14.75 -18.25 12.65 -18.25L12.65 0L2.1 0L2.1 -40.5M12.65 -33.55L12.65 -24.55Q14.35 -24.55 15.05 -25Q15.8 -25.5 15.8 -28.2L15.8 -30.4Q15.8 -32.35 15.1 -32.95Q14.4 -33.55 12.65 -33.55" />
</g>
<g id="PathID_47" transform="matrix(0.272812, -0.0731042, 0.0731042, 0.272812, -2.35, 11.55)" opacity="1">
<path style="fill:#FF8409;fill-opacity:1" d="M128.8 9.75Q118.6 42.05 112.9 43.25Q106.95 43.95 107.2 36.8Q116.7 0 124.55 0L145 0Q150 1.2 150 4.5L150 5.45Q149.25 9.5 143.1 9.75L128.8 9.75M106.25 65.8Q106.5 69.85 100.75 71.5L10.7 71.5Q3.55 70.8 3.8 66.3Q4.25 61.8 10.9 61.8L99.6 61.8Q106 62.25 106.25 65.8M103.85 55.1L5.95 55.1Q0 54.4 0 50.35Q0 46.35 5.95 45.4L103.85 45.4Q111.25 45.85 111 50.6Q110.5 55.1 103.85 55.1M101.5 84.1Q101.25 88.65 94.35 88.65L20.45 88.65Q13.3 88.15 13.05 83.9Q13.05 79.15 19.5 79.15L95.3 79.15Q101.7 79.6 101.5 84.1M78.9 111.7Q81.05 109.3 84.35 109.3Q87.95 109.3 90.1 111.7Q92.7 114.05 92.7 117.15Q92.7 120.7 90.1 123.1Q87.95 125.25 84.35 125.25Q81.05 125.25 78.9 123.1Q76.3 120.7 76.3 117.15Q76.3 114.05 78.9 111.7M20.65 100.05Q21.15 95.55 28.5 95.3L89.85 95.3Q95.55 95.3 96.5 99.55Q96.95 103.6 91.05 105.05L26.35 105.05Q20.45 104.55 20.65 100.05M34 109.3Q37.3 109.3 39.9 111.7Q42.05 114.05 42.05 117.15Q42.05 120.7 39.9 123.1Q37.3 125.25 34 125.25L28.25 123.1Q26.15 120.7 26.15 117.15Q26.15 114.05 28.25 111.7Q30.9 109.3 34 109.3" />
</g>
<g id="PathID_48" transform="matrix(-0.00134638, -0.196627, -1.93421, 0.013243, 123.1, 41.25)" opacity="1">
<path style="fill:#BEBDBF;fill-opacity:1" d="M16.2 -45.95Q2.45 -40.25 -6.2 -28.75Q-17.95 -12.95 -11.75 4.7Q-8 14.9 0.9 22.55Q9.5 29.95 21.8 34.2L13.15 45.95Q1.4 40.95 -6.6 32.8Q-15.35 24.4 -19.3 14.15Q-26.7 -6.3 -12.2 -25.2Q-1.75 -39.05 16.2 -45.95" />
</g>
</svg>
